<svg viewBox="0 0 32 32" xmlns="http://www.w3.org/2000/svg"><path d="M27 24H9.6c-.3 0-.6-.3-.6-.6s.2-.6.5-.6L27.2 20c.4-.1.8-.4.8-.8l2-11c.1-.5-.3-1.1-.8-1.2-.5-.1-1.1.3-1.2.8L27.8 9H8.6v-.1c.6-1.3.6-2.8-.2-4C7.7 3.7 6.4 3 5 3H3c-.6 0-1 .4-1 1s.4 1 1 1h2c.7 0 1.4.4 1.8 1 .4.6.4 1.4.1 2l-.8 1.6c0 .1 0 .1-.1.2v.6l3.8 10.3-.6.1C7.9 21 7 22.1 7 23.4c0 1 .5 1.8 1.3 2.3-.2.4-.3.8-.3 1.3 0 1.7 1.3 3 3 3s3-1.3 3-3c0-.4-.1-.7-.2-1h7.4c-.1.3-.2.6-.2 1 0 1.7 1.3 3 3 3s3-1.3 3-3c0-.4-.1-.7-.2-1h.2c.6 0 1-.4 1-1s-.4-1-1-1zm-15 3c0 .6-.4 1-1 1s-1-.4-1-1 .4-1 1-1 1 .4 1 1zm13 0c0 .6-.4 1-1 1s-1-.4-1-1 .4-1 1-1 1 .4 1 1z"/></svg>