<svg height="512" width="512" xmlns="http://www.w3.org/2000/svg"><path fill="#55f255" d="M0 0h512v512H0z"/><path d="M444.594 275.556l-2.82-4.51c-4.514-6.77-9.02-13.539-15.79-18.045-5.634-3.949-12.404-6.768-18.607-9.59 17.485-8.461 29.888-20.301 35.53-35.53 3.948-12.41 2.819-22.558-2.82-32.712v-1.127c-6.762-11.282-15.788-18.616-29.884-22.558-8.462-1.69-18.049-1.69-26.507-1.13l-18.61 3.95 6.207-14.095c5.64-18.044 3.948-35.531-5.641-51.882l-1.693-2.822c-8.46-14.103-20.865-22.56-37.78-27.07-17.484-4.513-33.834-2.82-49.631 5.642-15.786 8.453-27.067 21.428-32.138 38.351v1.13l-.566 3.946-2.255-3.947-5.641-10.153c-9.03-14.08-20.312-22.54-34.408-26.489-12.406-2.82-22.559-1.693-33.269 3.95-11.846 7.33-18.617 18.612-21.437 34.402-2.82 16.35 0 32.147 8.461 47.933l3.95 5.636-13.538-4.51c-16.917-3.952-32.71-1.694-48.5 6.768-16.351 8.46-26.506 20.3-33.274 36.658-6.206 15.794-5.638 31.02 2.256 45.115 3.385 6.205 8.46 11.275 12.97 14.66 6.766 6.768 15.227 10.718 25.375 12.404l3.951 1.128-8.461 7.336c-7.898 6.765-12.404 15.221-15.226 23.682-2.82 10.154-1.692 20.302 3.947 29.892 2.82 4.506 5.636 8.455 10.148 11.274 4.513 3.949 10.152 6.77 16.916 7.328 12.41 2.822 25.38 2.822 39.475-1.7L145.13 365.79l-2.82 7.337c-5.636 18.048-3.95 33.844 4.511 50.187 3.949 6.206 8.462 11.852 12.974 16.918 6.768 6.203 15.226 10.152 25.377 12.974 16.916 4.506 33.84 3.948 50.193-4.508 15.793-8.466 25.942-21.999 31.018-38.922l.565-3.385c10.71 11.853 20.865 19.743 32.147 22.562 11.275 3.387 22.557 2.82 32.71-3.949 9.59-5.64 16.353-15.228 19.737-27.07 2.82-12.41 2.82-24.812 0-38.908 5.633 3.948 11.274 6.759 18.046 8.455 18.044 5.641 33.834 5.072 49.626-3.384 15.23-8.455 25.377-22 30.454-39.481 4.516-16.916 3.387-33.264-5.075-49.06zm-81.762-94.166l6.762-2.816c10.155-4.511 19.738-5.64 29.89-4.511 9.59 1.128 16.36 5.634 19.735 12.404l2.26 7.328-1.13 5.64c-3.949 10.155-12.41 18.046-26.507 24.25-5.633 2.821-11.84 3.95-18.609 5.072l-69.364 8.462-1.128-3.949-1.125-1.686 2.253-2.82 56.963-47.374zm-95.871-71.045c2.821-11.276 10.712-19.735 20.866-25.377 10.149-5.634 21.43-6.768 32.14-2.82 11.846 2.814 20.31 9.017 25.385 18.602 2.819 5.635 4.511 12.405 4.511 19.737l-1.692 12.404c-2.254 6.205-5.076 11.845-8.46 16.915l-50.758 62.044c-5.076-3.949-10.717-6.77-16.358-9.59l-5.634-63.724-.566-22.558.566-5.633zm-96.441 1.687c.564-10.155 4.514-16.917 11.277-20.867 3.382-2.82 8.461-2.82 12.966-.562 10.155 2.82 18.61 10.152 25.38 24.25 2.82 5.64 5.64 11.275 6.767 18.043l11.279 66.551-8.462 2.822-50.192-54.706-2.82-5.633c-4.502-10.16-7.322-19.745-6.195-29.898zM87.622 231.594c-4.511-8.462-4.511-16.917-1.127-25.379 3.948-10.716 11.275-19.178 21.993-23.684 10.148-5.648 20.297-7.34 31.578-4.52l15.228 6.206 49.628 36.096c-4.513 5.634-7.328 11.275-9.019 16.915l-81.209 10.153-5.64-1.129c-10.153-1.692-16.918-6.202-21.432-14.658zm156.776 166.369l-.566 5.64c-3.947 10.14-10.718 18.603-20.865 23.117-10.149 5.641-20.865 6.766-31.018 3.946-11.275-2.806-19.736-9.576-24.251-18.6-2.82-5.64-5.076-12.408-5.076-19.182l2.82-12.96a31.087 31.087 0 018.462-15.796l47.372-56.399c5.641 2.812 11.274 5.634 17.48 6.2 1.129 19.175 2.82 39.477 5.64 61.472v22.562zm-18.61-112.798c-7.333-6.77-11.275-16.359-11.275-26.507 0-10.147 3.942-18.61 11.275-26.508 6.762-6.204 15.79-10.146 26.506-10.146 10.155 0 19.738 3.947 25.942 10.146 7.898 7.899 11.281 16.361 11.281 26.508 0 10.148-3.385 19.735-11.28 26.507-7.333 7.328-15.79 11.275-25.943 11.275-10.717 0-19.742-3.947-26.506-11.275zm104.334 98.698c-1.13 10.154-4.515 17.482-11.278 20.3-3.947 2.821-8.46 2.821-12.968 2.25-10.718-2.808-19.18-11.273-25.377-24.813l-6.77-18.604-8.46-49.067 9.59-3.387 7.326-3.949 23.686 24.252 14.661 18.043 2.82 5.644c5.075 9.587 7.896 18.611 6.77 29.33zm97.003-65.997c-2.82 11.289-9.59 19.744-19.18 24.252-10.153 5.64-20.3 6.768-31.582 2.819-6.77-1.687-11.277-4.506-15.23-9.014l-59.216-49.067 3.947-8.457 1.7-6.775 63.729-5.634 22.559-.565 5.64.565c8.458 2.82 16.358 7.897 20.863 16.353 5.636 6.203 8.457 14.66 8.457 24.248l-1.687 11.275z" fill="#fff"/></svg>