<svg width="14" height="14" viewBox="0 0 14 14" fill="none" xmlns="http://www.w3.org/2000/svg">
<path d="M6.99998 3.00977C5.56684 3.00977 4.40088 4.17573 4.40088 5.60887C4.40088 7.04201 5.56684 8.20798 6.99998 8.20798C8.43312 8.20798 9.59908 7.04201 9.59908 5.60887C9.59908 4.17573 8.43315 3.00977 6.99998 3.00977ZM6.99998 7.11362C6.17026 7.11362 5.49523 6.43859 5.49523 5.60887C5.49523 4.77915 6.17026 4.10412 6.99998 4.10412C7.8297 4.10412 8.50473 4.77915 8.50473 5.60887C8.50473 6.43859 7.8297 7.11362 6.99998 7.11362Z" fill="#437FC8"/>
<path d="M6.60861 0C3.51601 0 1 2.51604 1 5.60861V5.76365C1 7.32771 1.89671 9.15034 3.6653 11.1808C4.9474 12.6528 6.21158 13.6791 6.26474 13.7221L6.60861 14L6.95249 13.7222C7.00567 13.6792 8.26986 12.6528 9.55192 11.1808C11.3205 9.15034 12.2172 7.32774 12.2172 5.76368V5.60864C12.2172 2.51604 9.70122 0 6.60861 0ZM11.1229 5.76368C11.1229 8.40686 7.71718 11.6065 6.60861 12.5778C5.49974 11.6062 2.09435 8.40667 2.09435 5.76368V5.60864C2.09435 3.11948 4.11946 1.09438 6.60861 1.09438C9.09777 1.09438 11.1229 3.11948 11.1229 5.60864V5.76368Z" fill="#437FC8"/>
</svg>
